<svg width="28" height="28" viewBox="0 0 28 28" fill="none" xmlns="http://www.w3.org/2000/svg">
    <path fill-rule="evenodd" clip-rule="evenodd"
        d="M2.88036 8.13035C2.96164 8.04887 3.05819 7.98422 3.1645 7.94011C3.2708 7.896 3.38476 7.87329 3.49986 7.87329C3.61495 7.87329 3.72891 7.896 3.83521 7.94011C3.94152 7.98422 4.03808 8.04887 4.11936 8.13035L13.9999 18.0126L23.8804 8.13035C23.9617 8.049 24.0583 7.98447 24.1646 7.94044C24.2709 7.89641 24.3848 7.87375 24.4999 7.87375C24.6149 7.87375 24.7288 7.89641 24.8351 7.94044C24.9414 7.98447 25.038 8.049 25.1194 8.13035C25.2007 8.21171 25.2652 8.30829 25.3093 8.41458C25.3533 8.52088 25.376 8.6348 25.376 8.74985C25.376 8.86491 25.3533 8.97883 25.3093 9.08513C25.2652 9.19142 25.2007 9.288 25.1194 9.36936L14.6194 19.8694C14.5381 19.9508 14.4415 20.0155 14.3352 20.0596C14.2289 20.1037 14.1149 20.1264 13.9999 20.1264C13.8848 20.1264 13.7708 20.1037 13.6645 20.0596C13.5582 20.0155 13.4616 19.9508 13.3804 19.8694L2.88036 9.36936C2.79887 9.28808 2.73422 9.19152 2.69011 9.08521C2.646 8.97891 2.62329 8.86495 2.62329 8.74985C2.62329 8.63476 2.646 8.5208 2.69011 8.4145C2.73422 8.30819 2.79887 8.21163 2.88036 8.13035Z"
        fill="black" />
</svg>
