<svg width="28" height="28" viewBox="0 0 28 28" fill="none" xmlns="http://www.w3.org/2000/svg">
    <path fill-rule="evenodd" clip-rule="evenodd"
        d="M25.1196 19.8694C25.0384 19.9509 24.9418 20.0155 24.8355 20.0596C24.7292 20.1038 24.6152 20.1265 24.5001 20.1265C24.3851 20.1265 24.2711 20.1038 24.1648 20.0596C24.0585 20.0155 23.9619 19.9509 23.8806 19.8694L14.0001 9.98715L4.11965 19.8694C4.03829 19.9508 3.94171 20.0153 3.83542 20.0593C3.72912 20.1033 3.6152 20.126 3.50014 20.126C3.38509 20.126 3.27117 20.1033 3.16487 20.0593C3.05858 20.0153 2.962 19.9508 2.88065 19.8694C2.79929 19.788 2.73476 19.6915 2.69073 19.5852C2.6467 19.4789 2.62404 19.365 2.62404 19.2499C2.62404 19.1348 2.6467 19.0209 2.69073 18.9146C2.73476 18.8083 2.79929 18.7118 2.88065 18.6304L13.3806 8.1304C13.4619 8.04891 13.5585 7.98426 13.6648 7.94015C13.7711 7.89604 13.8851 7.87334 14.0001 7.87334C14.1152 7.87334 14.2292 7.89604 14.3355 7.94015C14.4418 7.98426 14.5384 8.04891 14.6196 8.1304L25.1196 18.6304C25.2011 18.7117 25.2658 18.8082 25.3099 18.9145C25.354 19.0208 25.3767 19.1348 25.3767 19.2499C25.3767 19.365 25.354 19.479 25.3099 19.5853C25.2658 19.6916 25.2011 19.7881 25.1196 19.8694Z"
        fill="black" />
</svg>
